<?xml version="1.0" encoding="UTF-8" standalone="no"?>
<svg
   xmlns:dc="http://purl.org/dc/elements/1.1/"
   xmlns:cc="http://creativecommons.org/ns#"
   xmlns:rdf="http://www.w3.org/1999/02/22-rdf-syntax-ns#"
   xmlns:svg="http://www.w3.org/2000/svg"
   xmlns="http://www.w3.org/2000/svg"
   xmlns:sodipodi="http://sodipodi.sourceforge.net/DTD/sodipodi-0.dtd"
   xmlns:inkscape="http://www.inkscape.org/namespaces/inkscape"
   id="svg3348"
   version="1.1"
   inkscape:version="0.91 r13725"
   width="1200"
   height="400"
   viewBox="0 0 1200 400"
   sodipodi:docname="logo-c.svg">
  <sodipodi:namedview
     pagecolor="#ffffff"
     bordercolor="#666666"
     borderopacity="1"
     objecttolerance="10"
     gridtolerance="10"
     guidetolerance="10"
     inkscape:pageopacity="0"
     inkscape:pageshadow="2"
     inkscape:window-width="1920"
     inkscape:window-height="1017"
     id="namedview3340"
     showgrid="false"
     inkscape:zoom="0.70833333"
     inkscape:cx="600"
     inkscape:cy="600"
     inkscape:window-x="-8"
     inkscape:window-y="-8"
     inkscape:window-maximized="1"
     inkscape:current-layer="svg3348" />
  <metadata
     id="metadata3354">
    <rdf:RDF>
      <cc:Work
         rdf:about="">
        <dc:format>image/svg+xml</dc:format>
        <dc:type
           rdf:resource="http://purl.org/dc/dcmitype/StillImage" />
        <dc:title></dc:title>
      </cc:Work>
    </rdf:RDF>
  </metadata>
  <defs
     id="defs3352" />
  <path
     style="fill:#000000"
     d="m 30.958824,329.9 c 0,-0.6 9.1,-20.3 20.1,-43.8 22.6,-47.9 28.3,-59.9 34.1,-72.2 2.2,-4.7 5.9,-12.6 8.3,-17.5 9.499996,-20.2 28.099996,-59.5 38.899996,-82.5 6.4,-13.5 12.2,-24.6 12.9,-24.8 0.7,-0.2 2.2,1.6 3.2,4 1,2.4 12,24.8 24.3,49.8 12.3,25 26.4,53.6 31.2,63.5 4.8,9.9 20.3,41.3 34.4,69.9 14.1,28.5 25.6,52.5 25.6,53.2 0,1.2 -10.6,1.4 -67,1.4 -58.2,0 -67,-0.2 -67,-1.5 0,-0.8 4.7,-10.9 10.5,-22.5 l 10.5,-21.1 21.1,0.1 c 11.6,0.1 21.3,-0.1 21.5,-0.4 0.3,-0.3 -8.6,-18.5 -19.6,-40.5 -11,-22 -21.6,-43.4 -23.5,-47.6 -1.9,-4.2 -3.9,-7.6 -4.4,-7.6 -0.5,0 -3.5,5.7 -6.7,12.8 -3.2,7 -10.7,22.9 -16.8,35.2 -6,12.4 -13.3,27.7 -16.2,34 -13.099996,28.7 -26.899996,57.6 -27.899996,58.2 -1.8,1.2 -47.6,0.9 -47.6,-0.3 z m 365.699996,0.4 c -0.4,-0.4 -0.7,-38.8 -0.7,-85.5 l 0,-84.8 13.8,-27.8 c 7.6,-15.3 16.2,-32.6 19.1,-38.5 l 5.3,-10.8 24.7,0 24.7,0 20.4,21.6 c 11.2,11.9 20.5,22 20.7,22.5 0.2,0.5 -0.3,0.9 -1,0.9 -0.7,0 -19.6,0.1 -41.8,0.2 l -40.5,0.2 0,28 0,28 33,0.5 33,0.5 0.3,22.7 0.3,22.7 -33.3,0.3 -33.3,0.3 0,26.5 0,26.5 44.5,0.5 44.5,0.5 0,22.5 0,22.5 -66.6,0.3 c -36.6,0.1 -66.9,0 -67.2,-0.4 z m 357.8,-0.6 c -0.3,-0.7 -0.6,-45.8 -0.7,-100.3 l -0.2,-99 -33.3,-0.5 -33.3,-0.5 0,-20.8 c 0,-11.4 0,-21.4 0,-22.2 0,-1.3 9.8,-1.5 82,-1.5 56.3,0 82,0.3 82,1 0,0.6 -7.2,10.6 -16.1,22.2 l -16.1,21.2 -9.6,0.5 -9.6,0.5 -0.5,100 -0.5,100 -21.8,0.3 c -16.9,0.2 -21.9,0 -22.3,-1 z m 85.2,0.6 c -0.4,-0.4 -0.7,-43.3 -0.7,-95.3 l 0,-94.6 19.6,-26 c 10.8,-14.3 20.3,-26.8 21.2,-27.8 1.5,-1.7 3.3,-1.8 24.7,-1.4 25.3,0.5 27.2,0.8 39.6,7.4 13.7,7.2 30.5,26.4 36.9,42.4 6.6,16.2 7.7,36.4 3,53 -5.7,19.8 -21.8,39.8 -39.1,48.6 -2.7,1.4 -4.9,2.9 -4.9,3.5 0,0.8 13.7,24.1 46.6,79 3.5,5.8 6.1,10.8 5.8,11.2 -0.3,0.4 -11.9,0.8 -25.9,0.8 -25.2,0 -25.4,0 -27,-2.2 -0.9,-1.2 -10.6,-17.3 -21.5,-35.6 l -19.9,-33.4 0,-29.2 0,-29.2 8.8,-0.5 c 6.4,-0.3 10.1,-1.1 13.5,-2.7 7,-3.4 13.9,-10 17.2,-16.7 2.6,-5.3 2.9,-6.8 3,-15.8 0,-8.9 -0.3,-10.6 -2.7,-15.6 -4.8,-9.9 -13.1,-16.7 -23.5,-19.4 -7.5,-1.9 -28.1,-2.1 -28.9,-0.2 -0.3,0.7 -0.6,46.1 -0.7,100.8 l -0.2,99.4 -22.1,0.3 c -12.1,0.1 -22.4,0 -22.8,-0.4 z m -550.9,-21.1 c -5.5,-11.4 -12,-24.8 -14.3,-29.8 -2.4,-5 -8,-16.6 -12.5,-26 -4.5,-9.3 -10.4,-21.5 -13,-27 -2.6,-5.5 -8,-16.8 -12,-25 -4,-8.2 -8.9,-18.6 -11,-23 -5.3,-11.2 -30,-62.7 -39.6,-82.5 -2.8,-5.8 -4.9,-10.9 -4.7,-11.3 0.6,-1.1 138.1,-0.9 138.7,0.2 0.4,0.7 -8.3,19.8 -15.7,34.1 l -1.3,2.5 -31.2,0.3 c -17.2,0.1 -31.2,0.4 -31.2,0.6 0,0.3 5,10.7 22.5,47.1 3.4,7.2 9,18.6 12.3,25.5 3.3,6.9 9.7,20.1 14.1,29.4 4.5,9.3 8.1,17.3 8.1,17.8 0,0.5 0.7,0.9 1.5,0.9 0.8,0 1.5,-0.4 1.5,-0.9 0,-0.5 3.6,-8.4 8,-17.6 4.4,-9.2 8,-16.8 8,-16.9 0,-0.1 3.3,-7.2 7.3,-15.6 9.4,-19.7 22.5,-47.5 38,-80.4 l 12.2,-26 20.7,-0.3 c 11.4,-0.1 20.7,-0.1 20.7,0.1 0,0.2 -2.3,5.3 -5.1,11.3 -2.8,6 -6.6,14 -8.4,17.9 -1.8,3.9 -6.1,12.8 -9.5,20 -3.4,7.2 -9.7,20.4 -14,29.5 -4.3,9.1 -10.4,21.9 -13.5,28.5 -3.2,6.6 -9.2,19.4 -13.5,28.5 -8,17 -31.6,66.8 -44,92.6 -3.9,8.1 -7,15.1 -7,15.5 0,0.5 -0.5,0.9 -1.1,0.9 -0.6,0 -5.6,-9.3 -11.1,-20.8 z m 266.8,20.1 c -0.4,-0.4 -0.7,-55.5 -0.7,-122.5 0,-104.4 0.2,-121.8 1.4,-121.8 0.8,0 1.6,0.4 1.8,0.9 0.4,1.1 3.4,4.2 73.3,76.3 29.7,30.7 54.4,55.8 54.8,55.8 0.4,0 0.8,-16 0.8,-35.5 l 0,-35.5 22.5,0 22.5,0 0,91 c 0,50 -0.4,91 -0.9,91 -0.5,0 -7.6,-7.1 -15.8,-15.7 -14.1,-14.9 -72.4,-75.1 -100.7,-104 -7.1,-7.3 -13.2,-13.3 -13.6,-13.3 -0.3,0 -0.5,29.3 -0.4,65.1 0.2,42.6 -0.1,65.8 -0.8,67 -0.9,1.8 -2.4,1.9 -22.3,1.9 -11.7,0 -21.6,-0.3 -22,-0.7 z m 490.29998,-43.1 0,-43.7 -12.4,-26 c -12,-25.3 -27,-56.6 -36.59998,-77 -2.6,-5.5 -9.3,-19.6 -14.9,-31.3 -5.6,-11.7 -10.1,-21.7 -10.1,-22.2 0,-0.6 9.9,-0.9 24.8,-0.9 l 24.79998,0 7.9,16.8 c 4.3,9.2 12,25.3 17,35.8 5,10.4 11.5,24.2 14.5,30.5 7.1,15.2 7.2,15.3 9.8,9.3 1.1,-2.7 4.5,-10 7.5,-16.3 3,-6.3 6.4,-13.5 7.5,-16 1.1,-2.5 7.9,-16.9 15,-32 l 13,-27.5 25.1,-0.3 c 13.8,-0.1 25.1,0 25.1,0.3 0,0.6 -9.9,21.8 -35,75 -7.3,15.4 -14.6,30.9 -16.3,34.5 -1.7,3.6 -7,15 -11.9,25.4 l -8.9,18.9 0,23.1 0,23.1 -22.3,22.2 c -12.2,12.2 -22.6,22.2 -23,22.2 -0.4,0 -0.7,-19.7 -0.7,-43.7 z"
     id="logo"
     inkscape:connector-curvature="0" />
</svg>
