<?xml version="1.0" encoding="UTF-8" standalone="no"?>
<!-- Created with Inkscape (http://www.inkscape.org/) -->

<svg
   xmlns:dc="http://purl.org/dc/elements/1.1/"
   xmlns:cc="http://creativecommons.org/ns#"
   xmlns:rdf="http://www.w3.org/1999/02/22-rdf-syntax-ns#"
   xmlns:svg="http://www.w3.org/2000/svg"
   xmlns="http://www.w3.org/2000/svg"
   xmlns:sodipodi="http://sodipodi.sourceforge.net/DTD/sodipodi-0.dtd"
   xmlns:inkscape="http://www.inkscape.org/namespaces/inkscape"
   id="svg3348"
   version="1.1"
   inkscape:version="0.91 r13725"
   width="1200"
   height="1200"
   viewBox="0 0 1200 1200"
   sodipodi:docname="logo.svg">
  <metadata
     id="metadata3354">
    <rdf:RDF>
      <cc:Work
         rdf:about="">
        <dc:format>image/svg+xml</dc:format>
        <dc:type
           rdf:resource="http://purl.org/dc/dcmitype/StillImage" />
        <dc:title></dc:title>
      </cc:Work>
    </rdf:RDF>
  </metadata>
  <defs
     id="defs3352" />
  <sodipodi:namedview
     pagecolor="#ffffff"
     bordercolor="#666666"
     borderopacity="1"
     objecttolerance="10"
     gridtolerance="10"
     guidetolerance="10"
     inkscape:pageopacity="0"
     inkscape:pageshadow="2"
     inkscape:window-width="1920"
     inkscape:window-height="1017"
     id="namedview3350"
     showgrid="false"
     inkscape:zoom="0.78666667"
     inkscape:cx="699.09246"
     inkscape:cy="870.83081"
     inkscape:window-x="-8"
     inkscape:window-y="-8"
     inkscape:window-maximized="1"
     inkscape:current-layer="svg3348" />
  <path
     style="fill:#000000"
     d="m 23.915254,505.91637 c 0,-0.58668 9.065542,-20.27418 20.145648,-43.75 22.612449,-47.90982 28.284375,-59.92349 34.07938,-72.18332 2.20979,-4.675 5.927388,-12.55 8.261328,-17.5 9.538754,-20.23051 28.05702,-59.47649 38.92774,-82.5 6.36232,-13.475 12.15368,-24.62754 12.86969,-24.78342 0.71601,-0.15588 2.15171,1.64412 3.19044,4 1.03874,2.35588 11.98433,24.75842 24.32354,49.78342 12.33921,25.025 26.38291,53.6 31.20823,63.5 4.82533,9.9 20.29797,41.3402 34.38366,69.86712 14.08569,28.52691 25.61035,52.48941 25.61035,53.25 0,1.16341 -10.63302,1.38288 -67,1.38288 -58.17017,0 -67,-0.19302 -67,-1.46465 0,-0.80556 4.73557,-10.94652 10.52349,-22.53547 l 10.52349,-21.07082 21.06747,0.11118 c 11.5871,0.0611 21.27784,-0.0992 21.53497,-0.35632 0.25712,-0.25713 -8.55279,-18.47806 -19.57759,-40.49097 -11.0248,-22.01291 -21.6005,-43.4366 -23.50157,-47.60821 -1.90106,-4.17161 -3.87091,-7.58474 -4.37743,-7.58474 -0.50653,0 -3.53892,5.7375 -6.73864,12.75 -3.19972,7.0125 -10.74031,22.875 -16.75686,35.25 -6.01656,12.375 -13.29672,27.675 -16.178143,34 -13.09575,28.74642 -26.910567,57.56499 -27.91609,58.23469 -1.828528,1.21783 -47.603103,0.92804 -47.603103,-0.30137 z m 365.673706,0.40705 c -0.37054,-0.37054 -0.6737,-38.82766 -0.6737,-85.46027 l 0,-84.78657 13.84325,-27.79677 c 7.61378,-15.28822 16.21173,-32.63426 19.10653,-38.54676 l 5.26329,-10.75 24.7497,0 24.7497,0 20.39376,21.57256 c 11.21657,11.86491 20.54377,21.98991 20.7271,22.5 0.18334,0.51009 -0.26666,0.93475 -1,0.94368 -0.73333,0.009 -19.55833,0.12144 -41.83333,0.25 l -40.5,0.23376 0,28 0,28 33,0.5 33,0.5 0.26874,22.7365 0.26874,22.73649 -33.26874,0.26351 -33.26874,0.2635 0,26.5 0,26.5 44.5,0.5 44.5,0.5 0,22.5 0,22.5 -66.5763,0.25703 c -36.61697,0.14137 -66.87947,-0.0461 -67.25,-0.41666 z m 357.7999,-0.5708 c -0.26325,-0.69826 -0.59001,-45.81957 -0.72612,-100.26957 l -0.24748,-99 -33.29399,-0.5 -33.29398,-0.5 0.0222,-20.75 c 0.0122,-11.4125 0.032,-21.425 0.044,-22.25 0.0191,-1.32096 9.80918,-1.5 82.02174,-1.5 56.27913,0 82,0.32732 82,1.04351 0,0.57392 -7.2452,10.58642 -16.10045,22.25 l -16.10043,21.20649 -9.64954,0.5 -9.64955,0.5 -0.5,100 -0.5,100 -21.77388,0.26957 c -16.87836,0.20896 -21.88149,-0.0159 -22.25252,-1 z m 85.2117,0.5824 c -0.37691,-0.37692 -0.6853,-43.26139 -0.6853,-95.29883 l 0,-94.61352 19.58145,-25.96981 c 10.7698,-14.2834 20.3264,-26.79803 21.23689,-27.8103 1.53992,-1.71208 3.26115,-1.80917 24.66854,-1.39156 25.33614,0.49426 27.22794,0.84571 39.62837,7.36195 13.66731,7.18197 30.47161,26.44654 36.94538,42.35445 6.59629,16.20897 7.72283,36.40092 2.9563,52.98828 -5.7016,19.84135 -21.76779,39.78657 -39.13967,48.58957 -2.68249,1.35932 -4.87726,2.91261 -4.87726,3.45175 0,0.82758 13.73999,24.13742 46.55058,78.97286 3.45111,5.76775 6.06249,10.83025 5.80306,11.25 -0.25942,0.41975 -11.89911,0.76319 -25.86597,0.76319 -25.1887,0 -25.4074,-0.0182 -27.01249,-2.25 -0.89001,-1.2375 -10.58602,-17.2712 -21.54669,-35.63044 l -19.92849,-33.38044 0,-29.24724 0,-29.24724 8.75,-0.45501 c 6.35529,-0.33049 10.05821,-1.08217 13.53004,-2.74657 7.0062,-3.35878 13.88835,-10.02727 17.23301,-16.69798 2.6469,-5.27911 2.9334,-6.81337 2.95881,-15.84508 0.0251,-8.91789 -0.26945,-10.60562 -2.72196,-15.5967 -4.84664,-9.86335 -13.14169,-16.72843 -23.46044,-19.41612 -7.47664,-1.94742 -28.12951,-2.06759 -28.85848,-0.16791 -0.27844,0.72559 -0.60181,46.06309 -0.71861,100.75 l -0.21237,99.43073 -22.0647,0.26864 c -12.13558,0.14775 -22.37308,-0.0398 -22.75,-0.41667 z M 281.74185,485.23305 c -5.51629,-11.4125 -11.96193,-24.8 -14.32364,-29.75 -2.36171,-4.95 -7.99566,-16.65 -12.51988,-26 -4.52422,-9.35 -10.36737,-21.5 -12.98478,-27 -2.61741,-5.5 -8.01175,-16.75 -11.98743,-25 -3.97568,-8.25 -8.92828,-18.6 -11.00577,-23 -5.29786,-11.22054 -30.04249,-62.71838 -39.62071,-82.45754 -2.81359,-5.79835 -4.92454,-10.87996 -4.69098,-11.29246 0.61682,-1.08945 138.07256,-0.93771 138.74675,0.15316 0.44429,0.71888 -8.34438,19.77254 -15.72747,34.09684 l -1.28856,2.5 -31.21206,0.26425 c -17.16663,0.14533 -31.21206,0.42148 -31.21206,0.61366 0,0.31894 4.9553,10.69805 22.49751,47.12209 3.44352,7.15 8.96523,18.625 12.27046,25.5 3.30524,6.875 9.65958,20.08905 14.12077,29.36456 4.46119,9.2755 8.11126,17.263 8.11126,17.75 0,0.48699 0.675,0.88544 1.5,0.88544 0.825,0 1.5,-0.42133 1.5,-0.93628 0,-0.51496 3.6,-8.44641 8,-17.62544 4.4,-9.17904 8,-16.79781 8,-16.9306 0,-0.13279 3.29517,-7.16384 7.32261,-15.62456 9.35399,-19.65059 22.50868,-47.46762 38.01321,-80.38312 l 12.24706,-26 20.70856,-0.27029 c 11.38971,-0.14866 20.70856,-0.0829 20.70856,0.14617 0,0.22905 -2.29896,5.30068 -5.10881,11.27029 -2.80985,5.96961 -6.58369,14.00383 -8.38632,17.85383 -1.80264,3.85 -6.07649,12.85 -9.49746,20 -3.42097,7.15 -9.72225,20.425 -14.00285,29.5 -4.28059,9.075 -10.36237,21.9 -13.51506,28.5 -3.15269,6.6 -9.22127,19.425 -13.48573,28.5 -8.00959,17.04484 -31.6437,66.80157 -43.97877,92.58822 -3.86375,8.07723 -7.025,15.07419 -7.025,15.54882 0,0.47463 -0.48235,0.86296 -1.07189,0.86296 -0.58954,0 -5.58522,-9.3375 -11.10152,-20.75 z m 266.84008,20.08333 c -0.36667,-0.36666 -0.66667,-55.49166 -0.66667,-122.5 0,-104.44444 0.2022,-121.83333 1.41667,-121.83333 0.77916,0 1.56666,0.41347 1.75,0.91882 0.39526,1.08954 3.38552,4.20484 73.2673,76.33118 29.70828,30.6625 54.36403,55.75 54.79055,55.75 0.42651,0 0.77548,-15.975 0.77548,-35.5 l 0,-35.5 22.5,0 22.5,0 0,91 c 0,50.05 -0.38423,91 -0.85384,91 -0.46962,0 -7.55712,-7.0813 -15.75,-15.73622 -14.0775,-14.87138 -72.42406,-75.1117 -100.74395,-104.01378 -7.1407,-7.2875 -13.24614,-13.25005 -13.56765,-13.25011 -0.32151,-5e-5 -0.48068,29.29563 -0.35371,65.10153 0.15112,42.61786 -0.12005,65.75729 -0.78518,67.0001 -0.9491,1.77341 -2.41914,1.89848 -22.31419,1.89848 -11.71398,0 -21.59815,-0.3 -21.96481,-0.66667 z m 490.33327,-43.0623 0,-43.72896 -12.4011,-26.02104 c -12.0494,-25.28311 -26.95827,-56.64572 -36.61351,-77.02103 -2.60631,-5.5 -9.29422,-19.58672 -14.86203,-31.30383 -5.56782,-11.71711 -10.1233,-21.72961 -10.1233,-22.25 0,-0.56947 9.87655,-0.94617 24.80697,-0.94617 l 24.80687,0 7.8827,16.75 c 4.3355,9.2125 11.9944,25.3 17.0197,35.75 5.0254,10.45 11.5479,24.175 14.4946,30.5 7.0652,15.16585 7.1901,15.28481 9.7638,9.30202 1.1417,-2.65399 4.5228,-9.99517 7.5134,-16.31373 2.9907,-6.31856 6.3709,-13.51329 7.5117,-15.98829 1.1408,-2.475 7.9116,-16.875 15.0464,-32 l 12.9723,-27.5 25.0907,-0.26717 c 13.8,-0.14695 25.0908,-0.0331 25.0908,0.2529 0,0.64816 -9.8624,21.78458 -35.0023,75.01427 -7.2732,15.4 -14.5877,30.925 -16.2543,34.5 -1.6667,3.575 -7.0157,14.99921 -11.8868,25.38714 l -8.8566,18.88715 0,23.12119 0,23.12119 -22.2582,22.24166 c -12.2419,12.23292 -22.5919,22.24167 -23,22.24167 -0.408,0 -0.7418,-19.67803 -0.7418,-43.72897 z"
     id="logo"
     inkscape:connector-curvature="0" />
</svg>
