<?xml version="1.0" encoding="UTF-8" standalone="no"?>
<!-- Created with Inkscape (http://www.inkscape.org/) -->

<svg
   xmlns:dc="http://purl.org/dc/elements/1.1/"
   xmlns:cc="http://creativecommons.org/ns#"
   xmlns:rdf="http://www.w3.org/1999/02/22-rdf-syntax-ns#"
   xmlns:svg="http://www.w3.org/2000/svg"
   xmlns="http://www.w3.org/2000/svg"
   xmlns:sodipodi="http://sodipodi.sourceforge.net/DTD/sodipodi-0.dtd"
   xmlns:inkscape="http://www.inkscape.org/namespaces/inkscape"
   id="svg4136"
   version="1.1"
   inkscape:version="0.91 r13725"
   width="48"
   height="48"
   viewBox="0 0 48 48"
   sodipodi:docname="soundcloud-icon.svg">
  <metadata
     id="metadata4142">
    <rdf:RDF>
      <cc:Work
         rdf:about="">
        <dc:format>image/svg+xml</dc:format>
        <dc:type
           rdf:resource="http://purl.org/dc/dcmitype/StillImage" />
        <dc:title></dc:title>
      </cc:Work>
    </rdf:RDF>
  </metadata>
  <defs
     id="defs4140" />
  <sodipodi:namedview
     pagecolor="#ffffff"
     bordercolor="#666666"
     borderopacity="1"
     objecttolerance="10"
     gridtolerance="10"
     guidetolerance="10"
     inkscape:pageopacity="0"
     inkscape:pageshadow="2"
     inkscape:window-width="1440"
     inkscape:window-height="853"
     id="namedview4138"
     showgrid="true"
     inkscape:zoom="11.419774"
     inkscape:cx="23.42251"
     inkscape:cy="30.758819"
     inkscape:window-x="-4"
     inkscape:window-y="-4"
     inkscape:window-maximized="1"
     inkscape:current-layer="svg4136">
    <inkscape:grid
       type="xygrid"
       id="grid4174" />
  </sodipodi:namedview>
  <path
     style="fill:#000000"
     d=""
     id="path4162"
     inkscape:connector-curvature="0" />
  <path
     style="fill:#000000"
     d=""
     id="path4160"
     inkscape:connector-curvature="0" />
  <path
     inkscape:connector-curvature="0"
     d="M 1.9696871,24.319298 C 1.8771915,24.319298 1.8037415,24.384233 1.7918327,24.476935 L 1.4675514,26.713642 1.7918327,28.911805 C 1.8044266,29.004572 1.8771915,29.069011 1.9696871,29.069011 2.0592456,29.069011 2.1323044,29.004839 2.1466188,28.912683 L 2.1466188,28.912683 2.1466188,28.912251 C 2.1466188,28.912251 2.1466188,28.912251 2.1466188,28.912683 L 2.53096,26.713642 2.1466188,24.47649 C 2.1326256,24.38436 2.0588817,24.319298 1.9696871,24.319298 Z M 3.7932282,23.09723 C 3.7779757,23.001161 3.702132,22.93484 3.6086847,22.93484 3.5147898,22.93484 3.437,23.003333 3.4241395,23.09723 3.4241395,23.098094 2.9882762,26.713642 2.9882762,26.713642 L 3.4241395,30.24993 C 3.4367352,30.344857 3.5142567,30.413199 3.6086847,30.413199 3.7017407,30.413199 3.7774854,30.346484 3.7927532,30.250795 L 4.2886901,26.713642 Z M 10.661995,19.761442 C 10.483173,19.761442 10.335347,19.894376 10.32677,20.063275 L 9.9796088,26.716679 10.32677,31.016441 C 10.336565,31.184461 10.483173,31.316977 10.661995,31.316977 10.839876,31.316977 10.987228,31.184029 10.997722,31.015564 L 10.997722,31.016606 11.390179,26.716412 10.997722,20.063008 C 10.987926,19.894109 10.839876,19.761163 10.661995,19.761163 Z M 7.1069755,22.073937 C 6.9696998,22.073937 6.857571,22.173565 6.8466002,22.306487 L 6.4555717,26.714937 6.8466002,30.98006 C 6.8563955,31.112142 6.9696024,31.211744 7.1069755,31.211744 7.2428501,31.211744 7.3549362,31.112118 7.3668587,30.98006 L 7.8113008,26.714937 7.3668587,22.305609 C 7.3542648,22.173539 7.2428775,22.073937 7.1069755,22.073937 Z M 14.274736,31.316545 C 14.496474,31.316545 14.676735,31.154155 14.685789,30.946282 L 15.026275,26.718839 14.686266,17.860777 C 14.676471,17.652906 14.496949,17.490514 14.275211,17.490514 14.05157,17.490514 13.870832,17.653338 13.863681,17.861209 13.863681,17.861653 13.561817,26.718406 13.561817,26.718406 L 13.863681,30.947579 C 13.870678,31.153722 14.05157,31.316545 14.274736,31.316545 Z M 21.670923,31.336495 C 21.976118,31.336495 22.227899,31.108266 22.233623,30.827644 L 22.233623,30.830187 22.233623,30.827644 22.471103,26.721457 22.233623,16.49106 C 22.228026,16.210882 21.976118,15.982221 21.670923,15.982221 21.365252,15.982221 21.112996,16.21045 21.10821,16.491492 L 20.896015,26.717988 C 20.896015,26.724341 21.10821,30.830249 21.10821,30.830249 21.112408,31.108266 21.365729,31.336495 21.670923,31.336495 Z M 17.944696,31.320484 C 18.210303,31.320484 18.424415,31.126922 18.431579,30.880063 L 18.431579,30.882604 18.720556,26.719245 18.431104,17.797099 C 18.424108,17.550266 18.209827,17.357123 17.94422,17.357123 17.676696,17.357123 17.462584,17.550266 17.45686,17.797099 L 17.199832,26.719691 17.457336,30.882172 C 17.462934,31.126426 17.677171,31.319989 17.944696,31.319989 Z M 8.877578,31.281598 C 9.0354096,31.281598 9.1632112,31.166849 9.1751474,31.015704 L 9.5938275,26.715078 9.1751474,22.624037 C 9.1639527,22.472919 9.0359136,22.35902 8.877578,22.35902 8.7173408,22.35902 8.5895392,22.473769 8.5795354,22.625779 L 8.2109081,26.715078 8.5795354,31.015272 C 8.5893307,31.166836 8.7173681,31.281598 8.877578,31.281598 Z M 5.350672,31.046024 C 5.4661172,31.046024 5.5595371,30.963298 5.5728999,30.848994 L 6.0430902,26.714214 5.5733766,22.423537 C 5.5593833,22.308786 5.4660471,22.226072 5.350672,22.226072 5.2338275,22.226072 5.1403666,22.30918 5.1284578,22.423537 5.1284578,22.423969 4.714536,26.714214 4.714536,26.714214 L 5.1284578,30.848116 C 5.1396524,30.962866 5.2334089,31.046024 5.350672,31.046024 Z M 19.800659,17.649156 C 19.512158,17.649156 19.280876,17.857447 19.275138,18.124218 L 19.040527,26.720707 19.275138,30.857203 C 19.280736,31.120504 19.511683,31.328807 19.800659,31.328807 20.088683,31.328807 20.318524,31.120937 20.325198,30.854178 L 20.325198,30.856719 20.588427,26.720224 20.325198,18.122427 C 20.318201,17.856533 20.088683,17.64823 19.800659,17.64823 Z M 12.461705,31.325338 C 12.661025,31.325338 12.825531,31.177676 12.835073,30.989299 L 13.201307,26.718102 12.835073,18.542972 C 12.825278,18.354163 12.661025,18.206931 12.461705,18.206931 12.260451,18.206931 12.096423,18.354595 12.08783,18.542972 12.08783,18.543404 11.763563,26.718102 11.763563,26.718102 L 12.088305,30.991026 C 12.096703,31.177676 12.260451,31.325338 12.461705,31.325338 Z M 16.551296,30.922176 16.551296,30.919634 16.86602,26.719042 16.551296,17.562604 C 16.542901,17.335253 16.346238,17.156839 16.102573,17.156839 15.857452,17.156839 15.660032,17.334821 15.653359,17.562604 L 15.373912,26.71861 15.653834,30.921375 C 15.66083,31.146555 15.857927,31.324538 16.102573,31.324538 16.346713,31.324538 16.543179,31.146555 16.551296,30.920067 Z M 40.355458,21.441378 C 39.608229,21.441378 38.895311,21.578658 38.245824,21.825935 37.811863,17.362041 33.689849,13.860379 28.661779,13.860379 27.431458,13.860379 26.232146,14.080375 25.173019,14.452364 24.761489,14.597002 24.651809,14.745974 24.648004,15.03483 L 24.648004,30.754575 C 24.652202,31.057715 24.911232,31.310178 25.236913,31.340066 25.250906,31.341096 40.257716,31.347692 40.354997,31.347692 43.366878,31.347692 45.80891,29.130034 45.80891,26.394452 45.80891,23.658857 43.367354,21.44078 40.355458,21.44078 Z M 23.533085,15.020954 C 23.205474,15.020954 22.936522,15.265208 22.931763,15.56531 L 22.68569,26.72288 22.93224,30.772341 C 22.936438,31.068097 23.205474,31.311919 23.533085,31.311919 23.859731,31.311919 24.128697,31.068097 24.133455,30.767995 L 24.133455,30.773078 24.400979,26.723172 24.133455,15.564751 C 24.129257,15.265512 23.859731,15.021259 23.533085,15.021259 Z"
     id="icon"
     style="fill:#000000;fill-opacity:1" />
</svg>
