<?xml version="1.0"?>
<svg width="48" height="48.000001" xmlns="http://www.w3.org/2000/svg">

 <metadata id="metadata4741">image/svg+xml</metadata>
 <g>
  <title>background</title>
  <rect fill="none" id="canvas_background" height="402" width="582" y="-1" x="-1"/>
 </g>
 <g>
  <title>Layer 1</title>
  <path fill="#000000" d="m10.36447,40.488159c3.25781,-4.833984 8.67072,-8.009888 14.819079,-8.009888c5.59725,0 10.58412,2.63269 13.89319,6.751221c3.791531,-3.937378 6.13755,-9.353394 6.13755,-15.335693c0,-12.032471 -9.473419,-21.786682 -21.160721,-21.786682c-11.68635,0 -21.16071,9.754211 -21.16071,21.786682c0,6.651978 2.90513,12.599976 7.471611,16.59436zm25.00068,-10.059692c-0.307541,0.706421 -0.857719,0.849609 -1.502411,0.543213c-2.81814,-1.341919 -5.95463,-2.09375 -9.26181,-2.09375c-3.395119,0 -6.6092,0.79248 -9.485169,2.200806c-0.30801,0.151489 -0.98515,0.217773 -1.28987,-0.685059c-0.304709,-0.903809 0.17681,-1.415161 0.45378,-1.546875c3.1379,-1.510742 6.629889,-2.368652 10.321259,-2.368652c3.62648,0 7.116581,0.709717 10.154789,2.288818c0.479172,0.249878 0.916492,0.9552 0.609432,1.661499zm1.800541,-5.564941c-0.219131,0.315552 -0.560051,0.534546 -0.965401,0.534546c-0.111912,0 -0.213963,-0.037354 -0.316471,-0.066895c-3.452961,-1.570923 -7.266119,-2.453003 -11.28336,-2.453003c-3.98715,0 -7.77492,0.86853 -11.20813,2.417114c-0.12414,0.044678 -0.25204,0.083862 -0.39124,0.083862c-0.41286,0 -0.7599,-0.226685 -0.97762,-0.552979l-0.22853,-0.706299c0.00423,-0.366455 0.17022,-0.683472 0.41898,-0.90918c3.78259,-1.748291 7.971,-2.73291 12.38701,-2.73291c4.414122,0 8.599712,0.982178 12.38184,2.731079c0.25346,0.222168 0.415691,0.54895 0.422272,0.915405l-0.239349,0.739258zm-26.488981,-8.798523c4.30456,-1.788391 8.99847,-2.787659 13.92375,-2.787659c4.880131,0 9.532669,0.979004 13.803371,2.735901c0.578388,0.303467 0.983738,0.900879 0.983738,1.614502c0,1.010742 -0.796589,1.829956 -1.7775,1.829956c-0.13731,0 -0.267097,-0.031494 -0.394539,-0.0625c-3.899212,-1.618408 -8.15345,-2.51886 -12.614601,-2.51886c-4.464439,0 -8.722449,0.901489 -12.6226,2.522888c-0.1265,0.028992 -0.251579,0.058472 -0.3856,0.058472c-0.980909,0 -1.777499,-0.819214 -1.777499,-1.829956c-0.00047,-0.665649 0.347039,-1.242859 0.86148,-1.562744zm14.506371,23.613831c-3.583681,0 -6.757792,1.778076 -8.7831,4.507568c2.37705,0.950806 4.95113,1.492065 7.653589,1.492065c3.34951,0 6.50386,-0.821899 9.31871,-2.248657c-2.02438,-2.299561 -4.942671,-3.750977 -8.189199,-3.750977z" id="icon"/>
 </g>
</svg>